# xmcd
#
# Track frame offsets:
#	150
#	25800
#	42150
#	62381
#	83410
#	107066
#	124352
#	141677
#	159144
#	178810
#	194811
#
# Disc length: 2888 seconds
#
# Revision: 20
# Processed by: cddbd v1.5.2PL0 Copyright (c) Steve Scherf et al.
# Submitted via: EZCDAudioConverter 7.1.0.1
#
DISCID=950b460b
DTITLE=周杰伦 - 叶惠美
DYEAR=2003
DGENRE=R&B
TTITLE0=以父之名
TTITLE1=懦夫
TTITLE2=晴天
TTITLE3=三年二班
TTITLE4=东风破
TTITLE5=你听得到
TTITLE6=同一种调调
TTITLE7=她的睫毛
TTITLE8=爱情悬崖
TTITLE9=梯田
TTITLE10=双刀
EXTD=
EXTT0=
EXTT1=
EXTT2=
EXTT3=
EXTT4=
EXTT5=
EXTT6=
EXTT7=
EXTT8=
EXTT9=
EXTT10=
PLAYORDER=
